HIERARCHY
ROOT hip
{
	OFFSET 0.000000 0.000000 0.000000 
	CHANNELS 6 Xposition Yposition Zposition Xrotation Zrotation Yrotation
	JOINT abdomen
	{
		OFFSET 0.000000 3.402643 0.000000 
		CHANNELS 3 Xrotation Zrotation Yrotation
		JOINT chest
		{
			OFFSET 0.000000 8.438565 -0.680529 
			CHANNELS 3 Xrotation Zrotation Yrotation
			JOINT neck
			{
				OFFSET 0.000000 10.207942 -0.272212 
				CHANNELS 3 Xrotation Zrotation Yrotation
				JOINT head
				{
					OFFSET 0.000000 3.130431 0.000000 
					CHANNELS 3 Xrotation Zrotation Yrotation
					End Site
					{
						OFFSET 0.000000 3.130435 0.000000 
					}
				}
			}
			JOINT lCollar
			{
				OFFSET 3.470700 6.669187 -0.816635 
				CHANNELS 3 Yrotation Zrotation Xrotation
				JOINT lShldr
				{
					OFFSET 3.198488 0.000000 0.000000 
					CHANNELS 3 Zrotation Yrotation Xrotation
					JOINT lForeArm
					{
						OFFSET 10.139888 0.000000 0.000000 
						CHANNELS 3 Yrotation Zrotation Xrotation
						JOINT lHand
						{
							OFFSET 8.370511 0.000000 0.000000 
							CHANNELS 3 Zrotation Yrotation Xrotation
							End Site
							{
								OFFSET 4.083176 0.000000 0.000000 
							}
						}
					}
				}
			}
			JOINT rCollar
			{
				OFFSET -3.470700 6.669187 -0.816635 
				CHANNELS 3 Yrotation Zrotation Xrotation
				JOINT rShldr
				{
					OFFSET -3.198488 0.000000 0.000000 
					CHANNELS 3 Zrotation Yrotation Xrotation
					JOINT rForeArm
					{
						OFFSET -10.139888 0.000000 0.000000 
						CHANNELS 3 Yrotation Zrotation Xrotation
						JOINT rHand
						{
							OFFSET -8.370511 0.000000 0.000000 
							CHANNELS 3 Zrotation Yrotation Xrotation
							End Site
							{
								OFFSET -4.083176 0.000000 0.000000 
							}
						}
					}
				}
			}
		}
	}
	JOINT lThigh
	{
		OFFSET 5.308129 -1.633274 1.361059 
		CHANNELS 3 Xrotation Zrotation Yrotation
		JOINT lShin
		{
			OFFSET -2.041588 -20.007561 0.000000 
			CHANNELS 3 Xrotation Zrotation Yrotation
			JOINT lFoot
			{
				OFFSET 0.000000 -19.190928 -1.224953 
				CHANNELS 3 Xrotation Yrotation Zrotation
				End Site
				{
					OFFSET 0.000000 -2.449906 4.627600 
				}
			}
		}
	}
	JOINT rThigh
	{
		OFFSET -5.308129 -1.633274 1.361059 
		CHANNELS 3 Xrotation Zrotation Yrotation
		JOINT rShin
		{
			OFFSET 2.041588 -20.007561 0.000000 
			CHANNELS 3 Xrotation Zrotation Yrotation
			JOINT rFoot
			{
				OFFSET 0.000000 -19.190928 -1.224953 
				CHANNELS 3 Xrotation Yrotation Zrotation
				End Site
				{
					OFFSET 0.000000 -2.449906 4.627600 
				}
			}
		}
	}
}
MOTION
Frames: 9
Frame Time: 0.033333
-7.120456 42.446331 61.454647 -14.238281 -2.294922 125.322266 18.037109 2.695313 5.087891 -8.896484 7.001954 6.630859 -12.158203 1.806641 22.676088 9.921875 -11.083984 22.654373 3.164063 0.615234 -0.048933 -68.652344 -3.291016 -5.986889 -103.623047 -2.919922 -32.509766 15.312519 -121.123047 -11.961484 7.900391 2.890625 -0.225102 64.667969 6.142578 22.374092 68.876953 3.466797 -42.529297 5.595703 11.093750 1.250000 -44.965309 37.706154 18.609625 44.197788 -0.716241 -2.906878 -11.320903 -6.449840 -8.451843 -6.823218 -7.670865 -10.786846 26.297302 1.044847 1.579446 -23.312227 -4.980483 5.007462 
-7.123731 42.441841 61.450649 -14.238281 -2.294922 125.498047 18.037109 2.695313 5.087891 -8.896484 7.001954 6.630859 -12.158203 1.982422 22.666355 9.921875 -11.259766 22.654343 3.164063 0.615234 -0.048933 -68.476570 -3.271484 -6.005859 -103.750000 -2.949219 -32.724106 15.683617 -121.347656 -12.186076 7.734374 3.066406 -0.244141 64.345703 6.396484 22.451174 69.003906 3.417969 -42.910156 5.585938 10.566407 1.250000 -45.173992 37.741222 18.714991 44.202747 -0.589004 -3.023179 -11.207555 -6.250767 -8.526660 -7.040589 -7.733588 -10.610900 26.297304 1.044833 1.579443 -23.145853 -4.970485 5.211530 
-7.130039 42.437115 61.457077 -14.423830 -2.294922 125.498047 18.037109 2.695313 5.087891 -8.896484 7.001954 6.630859 -12.158203 1.982422 22.666355 9.921875 -11.259766 22.654343 2.988281 0.615234 -0.048828 -68.486328 -3.261719 -6.074775 -103.730469 -3.085938 -32.939453 15.976578 -121.396492 -12.420444 7.734374 3.066406 -0.244141 64.277344 6.230468 22.432701 68.935547 3.437500 -43.135353 5.927735 10.029297 1.271234 -45.300648 37.662624 18.309912 44.214077 -0.771564 -2.735121 -11.203050 -6.595459 -8.502803 -7.217140 -7.568784 -10.608447 26.306841 1.051179 1.581273 -23.127914 -5.161206 5.080228 
-7.137926 42.434444 61.458656 -14.423830 -2.294922 125.498047 17.861326 2.695313 5.087891 -8.896483 7.177735 6.632080 -12.158202 2.158203 22.666384 9.921876 -11.435547 22.654316 2.988281 0.439453 -0.039063 -68.339844 -3.056641 -6.162631 -103.867188 -3.115234 -33.143997 16.406252 -121.455078 -12.791535 7.734375 3.242188 -0.273438 64.169922 6.386719 22.285156 68.818359 3.476563 -43.564453 6.103516 10.029297 1.279297 -45.514343 37.924458 18.715382 44.202747 -0.588999 -3.023176 -11.111987 -6.458249 -8.415229 -7.323150 -7.469047 -10.589371 26.297304 1.044830 1.579441 -23.281286 -5.395209 4.948883 
-7.143263 42.429714 61.458042 -14.589844 -2.294922 125.498047 17.861326 2.695313 5.087891 -9.072266 7.011719 6.622286 -11.982422 2.333984 22.656250 9.921875 -11.611328 22.654284 2.812500 0.615234 -0.039167 -68.359375 -2.871094 -6.221192 -103.984375 -2.978516 -33.320313 16.621101 -121.669914 -13.016124 7.558594 3.242188 -0.264224 64.169922 6.386719 22.285156 68.945313 3.427734 -43.945896 6.093750 9.853516 1.280970 -45.514343 37.924461 18.715384 44.371216 -0.589095 -3.225438 -11.386988 -6.640878 -8.542036 -7.332412 -7.468307 -10.422680 26.297653 1.035036 1.577357 -23.262032 -5.581779 5.046682 
-7.143384 42.420975 61.455978 -14.589844 -2.294922 125.498047 17.861326 2.695313 5.087891 -9.248046 7.011719 6.612520 -11.982422 2.509766 22.656250 9.921876 -11.787109 22.654255 2.812500 0.791016 -0.048963 -68.378906 -2.695313 -6.220703 -104.140625 -3.046875 -33.369137 16.767595 -121.689453 -13.016123 7.558594 3.242188 -0.264224 64.091797 6.376953 22.188587 69.013672 3.320313 -44.160721 6.093750 9.853516 1.280970 -45.671150 38.052223 18.759476 44.371510 -0.595911 -3.218387 -11.196451 -6.603318 -8.505679 -7.309583 -7.268401 -10.235028 26.297653 1.035029 1.577356 -23.270742 -5.401999 4.957178 
-7.155394 42.406296 61.450279 -14.599609 -2.470703 125.332031 17.861326 2.519531 5.039063 -9.248046 7.011719 6.612520 -12.158203 2.861328 22.637209 9.921875 -11.962891 22.654226 2.988281 0.966797 -0.068359 -68.388680 -2.529297 -6.152343 -104.306641 -2.998047 -33.202847 16.767595 -121.689453 -13.016123 7.558594 3.417969 -0.283785 64.003906 6.376953 22.120228 68.886719 3.447266 -44.150684 6.279297 10.029297 1.289062 -45.885170 38.109585 18.685352 44.538422 -0.413584 -3.165644 -11.224337 -6.817708 -8.614611 -7.556043 -7.554880 -10.070021 26.297653 1.035035 1.577356 -23.088793 -5.541408 5.067464 
-7.165219 42.383373 61.435234 -14.599609 -2.470703 125.332031 17.861326 2.519531 5.039063 -9.072266 6.835937 6.622256 -12.509766 3.212891 22.627499 10.097656 -12.138672 22.646484 3.164063 1.142578 -0.078320 -68.388680 -2.529297 -6.152343 -104.433594 -3.027344 -33.417454 17.421900 -121.611328 -13.768081 7.558594 3.593750 -0.303346 64.052734 6.699219 22.042154 68.759766 3.564453 -44.160770 6.455079 10.195313 1.300557 -45.982662 37.992241 18.650507 44.716419 -0.579430 -2.879971 -11.322536 -7.050574 -8.544450 -7.566890 -7.566197 -9.903610 26.473808 1.035024 1.576288 -23.439093 -5.572927 4.841664 
-7.188997 42.357655 61.403702 -14.599609 -2.646484 125.332031 17.851563 2.353516 4.980435 -9.082031 6.660156 6.621094 -12.861328 3.378906 22.626949 10.097656 -12.138672 22.646484 3.339844 1.132813 -0.078318 -68.378906 -2.695313 -6.220703 -104.707031 -2.958985 -33.632816 18.134781 -121.728516 -14.373539 7.558594 3.593750 -0.303346 64.091797 6.640625 21.846832 68.574219 3.466797 -44.062500 6.835937 10.341796 1.494141 -46.000713 37.999634 18.457794 44.901741 -0.589281 -2.893003 -11.468519 -6.862213 -8.475275 -7.907412 -7.545158 -9.344843 26.640417 1.049180 1.558372 -23.199694 -6.000921 4.760998 
